<?xml version="1.0" encoding="utf-8"?>
<!-- Generator: Adobe Illustrator 18.1.0, SVG Export Plug-In . SVG Version: 6.00 Build 0)  -->
<!DOCTYPE svg PUBLIC "-//W3C//DTD SVG 1.1//EN" "http://www.w3.org/Graphics/SVG/1.1/DTD/svg11.dtd">
<svg version="1.1" id="Layer_1" xmlns="http://www.w3.org/2000/svg" xmlns:xlink="http://www.w3.org/1999/xlink" x="0px" y="0px"
	 viewBox="0 0 9 9" enable-background="new 0 0 9 9" xml:space="preserve">
<g>
	<g>
		<path d="M8.8,1.8C8.5,2.2,8.3,2.5,7.9,2.7c0,0.1,0,0.1,0,0.2c0,0.5-0.1,0.9-0.2,1.4C7.6,4.9,7.4,5.3,7.1,5.7
			c-0.3,0.4-0.6,0.8-1,1.1C5.7,7.2,5.2,7.5,4.7,7.7S3.5,8,2.9,8C1.9,8,1,7.7,0.2,7.2c0.1,0,0.3,0,0.4,0c0.8,0,1.5-0.3,2.2-0.8
			c-0.4,0-0.7-0.1-1-0.4S1.3,5.6,1.2,5.3c0.1,0,0.2,0,0.3,0c0.2,0,0.3,0,0.5-0.1C1.6,5.1,1.2,4.9,1,4.6C0.7,4.3,0.6,3.9,0.6,3.5v0
			c0.2,0.1,0.5,0.2,0.8,0.2C1.1,3.5,0.9,3.3,0.8,3.1C0.6,2.8,0.6,2.5,0.6,2.2c0-0.3,0.1-0.6,0.2-0.9c0.4,0.5,1,1,1.6,1.3
			C3,3,3.7,3.1,4.4,3.2c0-0.1,0-0.3,0-0.4c0-0.5,0.2-0.9,0.5-1.2C5.2,1.2,5.7,1,6.1,1c0.5,0,0.9,0.2,1.3,0.6
			c0.4-0.1,0.8-0.2,1.1-0.4c-0.1,0.4-0.4,0.7-0.8,1C8.1,2.1,8.5,2,8.8,1.8z"/>
	</g>
</g>
</svg>
